<svg xmlns="http://www.w3.org/2000/svg" width="900" height="430" viewBox="0 0 900 430">
<rect width="100%" height="100%" fill="#07111f"/>
<style>
  text { font-family: -apple-system, BlinkMacSystemFont, "Segoe UI", sans-serif; }
  .title { fill: #e8f1fa; font-size: 24px; font-weight: 650; }
  .axis { stroke: #91a8be; stroke-width: 1.2; }
  .grid { stroke: #263c52; stroke-width: 0.8; opacity: 0.75; }
  .tick { fill: #c8d7e5; font-size: 12px; }
  .label { fill: #9fb3c7; font-size: 14px; }
</style>
<rect x="78" y="64" width="720" height="275" rx="8" fill="#0b1b2e" stroke="#28465f"/>
<text x="78" y="36" class="title">Damped Newton residual history</text>
<line x1="78.0" y1="64" x2="78.0" y2="339" class="grid"/>
<line x1="78" y1="64.0" x2="798" y2="64.0" class="grid"/>
<line x1="222.0" y1="64" x2="222.0" y2="339" class="grid"/>
<line x1="78" y1="119.0" x2="798" y2="119.0" class="grid"/>
<line x1="366.0" y1="64" x2="366.0" y2="339" class="grid"/>
<line x1="78" y1="174.0" x2="798" y2="174.0" class="grid"/>
<line x1="510.0" y1="64" x2="510.0" y2="339" class="grid"/>
<line x1="78" y1="229.0" x2="798" y2="229.0" class="grid"/>
<line x1="654.0" y1="64" x2="654.0" y2="339" class="grid"/>
<line x1="78" y1="284.0" x2="798" y2="284.0" class="grid"/>
<line x1="798.0" y1="64" x2="798.0" y2="339" class="grid"/>
<line x1="78" y1="339.0" x2="798" y2="339.0" class="grid"/>
<line x1="78" y1="339" x2="798" y2="339" class="axis"/>
<line x1="78" y1="64" x2="78" y2="339" class="axis"/>
<text x="438.0" y="387" text-anchor="middle" class="label">nonlinear iteration</text>
<text x="24" y="201.5" text-anchor="middle" transform="rotate(-90 24 201.5)" class="label">residual norm</text>
<polyline points="78.00,71.46 112.29,83.66 146.57,95.86 180.86,108.05 215.14,120.25 249.43,132.44 283.71,144.63 318.00,156.82 352.29,169.01 386.57,181.18 420.86,193.35 455.14,205.50 489.43,217.63 523.71,229.73 558.00,241.77 592.29,253.73 626.57,265.57 660.86,277.23 695.14,288.64 729.43,299.68 763.71,310.20 798.00,320.04" fill="none" stroke="#56d3ff" stroke-width="3" stroke-linecap="round" stroke-linejoin="round" opacity="1.0"/>
<polyline points="78.00,338.73 112.29,338.45 146.57,338.18 180.86,322.50 215.14,317.00 249.43,311.50 283.71,306.00 318.00,300.50 352.29,295.00 386.57,289.50 420.86,284.00 455.14,278.50 489.43,273.00 523.71,267.50 558.00,262.00 592.29,256.50 626.57,251.00 660.86,245.50 695.14,240.00 729.43,234.50 763.71,229.00 798.00,223.50" fill="none" stroke="#ffcc66" stroke-width="2.5" stroke-linecap="round" stroke-linejoin="round" opacity="1.0"/>
<circle cx="78.00" cy="71.46" r="4" fill="#56d3ff"/>
<circle cx="112.29" cy="83.66" r="4" fill="#56d3ff"/>
<circle cx="146.57" cy="95.86" r="4" fill="#56d3ff"/>
<circle cx="180.86" cy="108.05" r="4" fill="#56d3ff"/>
<circle cx="215.14" cy="120.25" r="4" fill="#56d3ff"/>
<circle cx="249.43" cy="132.44" r="4" fill="#56d3ff"/>
<circle cx="283.71" cy="144.63" r="4" fill="#56d3ff"/>
<circle cx="318.00" cy="156.82" r="4" fill="#56d3ff"/>
<circle cx="352.29" cy="169.01" r="4" fill="#56d3ff"/>
<circle cx="386.57" cy="181.18" r="4" fill="#56d3ff"/>
<circle cx="420.86" cy="193.35" r="4" fill="#56d3ff"/>
<circle cx="455.14" cy="205.50" r="4" fill="#56d3ff"/>
<circle cx="489.43" cy="217.63" r="4" fill="#56d3ff"/>
<circle cx="523.71" cy="229.73" r="4" fill="#56d3ff"/>
<circle cx="558.00" cy="241.77" r="4" fill="#56d3ff"/>
<circle cx="592.29" cy="253.73" r="4" fill="#56d3ff"/>
<circle cx="626.57" cy="265.57" r="4" fill="#56d3ff"/>
<circle cx="660.86" cy="277.23" r="4" fill="#56d3ff"/>
<circle cx="695.14" cy="288.64" r="4" fill="#56d3ff"/>
<circle cx="729.43" cy="299.68" r="4" fill="#56d3ff"/>
<circle cx="763.71" cy="310.20" r="4" fill="#56d3ff"/>
<circle cx="798.00" cy="320.04" r="4" fill="#56d3ff"/>
<rect x="75.00" y="335.73" width="6" height="6" fill="#ffcc66"/>
<rect x="109.29" y="335.45" width="6" height="6" fill="#ffcc66"/>
<rect x="143.57" y="335.18" width="6" height="6" fill="#ffcc66"/>
<rect x="177.86" y="319.50" width="6" height="6" fill="#ffcc66"/>
<rect x="212.14" y="314.00" width="6" height="6" fill="#ffcc66"/>
<rect x="246.43" y="308.50" width="6" height="6" fill="#ffcc66"/>
<rect x="280.71" y="303.00" width="6" height="6" fill="#ffcc66"/>
<rect x="315.00" y="297.50" width="6" height="6" fill="#ffcc66"/>
<rect x="349.29" y="292.00" width="6" height="6" fill="#ffcc66"/>
<rect x="383.57" y="286.50" width="6" height="6" fill="#ffcc66"/>
<rect x="417.86" y="281.00" width="6" height="6" fill="#ffcc66"/>
<rect x="452.14" y="275.50" width="6" height="6" fill="#ffcc66"/>
<rect x="486.43" y="270.00" width="6" height="6" fill="#ffcc66"/>
<rect x="520.71" y="264.50" width="6" height="6" fill="#ffcc66"/>
<rect x="555.00" y="259.00" width="6" height="6" fill="#ffcc66"/>
<rect x="589.29" y="253.50" width="6" height="6" fill="#ffcc66"/>
<rect x="623.57" y="248.00" width="6" height="6" fill="#ffcc66"/>
<rect x="657.86" y="242.50" width="6" height="6" fill="#ffcc66"/>
<rect x="692.14" y="237.00" width="6" height="6" fill="#ffcc66"/>
<rect x="726.43" y="231.50" width="6" height="6" fill="#ffcc66"/>
<rect x="760.71" y="226.00" width="6" height="6" fill="#ffcc66"/>
<rect x="795.00" y="220.50" width="6" height="6" fill="#ffcc66"/>
<text x="814" y="94" fill="#56d3ff" font-size="14">||R||_2</text>
<text x="814" y="122" fill="#ffcc66" font-size="14">damping</text>
<text x="814" y="160" class="label">MUMPS LU</text>
<text x="814" y="182" class="label">TRAP mass</text>
<text x="814" y="204" class="label">Newton ramp</text>
</svg>
