<svg xmlns="http://www.w3.org/2000/svg" width="900" height="430" viewBox="0 0 900 430">
<rect width="100%" height="100%" fill="#07111f"/>
<style>
  text { font-family: -apple-system, BlinkMacSystemFont, "Segoe UI", sans-serif; }
  .title { fill: #e8f1fa; font-size: 24px; font-weight: 650; }
  .axis { stroke: #91a8be; stroke-width: 1.2; }
  .grid { stroke: #263c52; stroke-width: 0.8; opacity: 0.75; }
  .tick { fill: #c8d7e5; font-size: 12px; }
  .label { fill: #9fb3c7; font-size: 14px; }
</style>
<rect x="78" y="64" width="720" height="275" rx="8" fill="#0b1b2e" stroke="#28465f"/>
<text x="78" y="36" class="title">Strong scaling of one nonlinear HH solve</text>
<line x1="78.0" y1="64" x2="78.0" y2="339" class="grid"/>
<line x1="78" y1="64.0" x2="798" y2="64.0" class="grid"/>
<line x1="222.0" y1="64" x2="222.0" y2="339" class="grid"/>
<line x1="78" y1="119.0" x2="798" y2="119.0" class="grid"/>
<line x1="366.0" y1="64" x2="366.0" y2="339" class="grid"/>
<line x1="78" y1="174.0" x2="798" y2="174.0" class="grid"/>
<line x1="510.0" y1="64" x2="510.0" y2="339" class="grid"/>
<line x1="78" y1="229.0" x2="798" y2="229.0" class="grid"/>
<line x1="654.0" y1="64" x2="654.0" y2="339" class="grid"/>
<line x1="78" y1="284.0" x2="798" y2="284.0" class="grid"/>
<line x1="798.0" y1="64" x2="798.0" y2="339" class="grid"/>
<line x1="78" y1="339.0" x2="798" y2="339.0" class="grid"/>
<line x1="78" y1="339" x2="798" y2="339" class="axis"/>
<line x1="78" y1="64" x2="78" y2="339" class="axis"/>
<text x="438.0" y="387" text-anchor="middle" class="label">MPI ranks</text>
<text x="24" y="201.5" text-anchor="middle" transform="rotate(-90 24 201.5)" class="label">speedup</text>
<polyline points="78.00,330.41 101.23,321.81 147.68,304.62 194.13,287.44 240.58,270.25 333.48,235.88 426.39,201.50 612.19,132.75 798.00,64.00" fill="none" stroke="#8aa1b7" stroke-width="1.8" stroke-linecap="round" stroke-linejoin="round" opacity="1.0" stroke-dasharray="7 7"/>
<polyline points="78.00,330.32 101.23,322.05 147.68,307.57 194.13,295.57 240.58,284.14 333.48,265.60 426.39,253.11 612.19,234.70 798.00,223.08" fill="none" stroke="#67f5a5" stroke-width="3" stroke-linecap="round" stroke-linejoin="round" opacity="1.0"/>
<polyline points="78.00,74.42 101.23,80.67 147.68,99.53 194.13,118.39 240.58,130.02 333.48,152.58 426.39,175.40 612.19,206.55 798.00,228.60" fill="none" stroke="#ff6f91" stroke-width="2.4" stroke-linecap="round" stroke-linejoin="round" opacity="1.0"/>
<circle cx="78.00" cy="330.32" r="4.3" fill="#67f5a5"/>
<circle cx="101.23" cy="322.05" r="4.3" fill="#67f5a5"/>
<circle cx="147.68" cy="307.57" r="4.3" fill="#67f5a5"/>
<circle cx="194.13" cy="295.57" r="4.3" fill="#67f5a5"/>
<circle cx="240.58" cy="284.14" r="4.3" fill="#67f5a5"/>
<circle cx="333.48" cy="265.60" r="4.3" fill="#67f5a5"/>
<circle cx="426.39" cy="253.11" r="4.3" fill="#67f5a5"/>
<circle cx="612.19" cy="234.70" r="4.3" fill="#67f5a5"/>
<circle cx="798.00" cy="223.08" r="4.3" fill="#67f5a5"/>
<path d="M78.00,69.42 L83.00,74.42 L78.00,79.42 L73.00,74.42 Z" fill="#ff6f91"/>
<path d="M101.23,75.67 L106.23,80.67 L101.23,85.67 L96.23,80.67 Z" fill="#ff6f91"/>
<path d="M147.68,94.53 L152.68,99.53 L147.68,104.53 L142.68,99.53 Z" fill="#ff6f91"/>
<path d="M194.13,113.39 L199.13,118.39 L194.13,123.39 L189.13,118.39 Z" fill="#ff6f91"/>
<path d="M240.58,125.02 L245.58,130.02 L240.58,135.02 L235.58,130.02 Z" fill="#ff6f91"/>
<path d="M333.48,147.58 L338.48,152.58 L333.48,157.58 L328.48,152.58 Z" fill="#ff6f91"/>
<path d="M426.39,170.40 L431.39,175.40 L426.39,180.40 L421.39,175.40 Z" fill="#ff6f91"/>
<path d="M612.19,201.55 L617.19,206.55 L612.19,211.55 L607.19,206.55 Z" fill="#ff6f91"/>
<path d="M798.00,223.60 L803.00,228.60 L798.00,233.60 L793.00,228.60 Z" fill="#ff6f91"/>
<text x="814" y="94" fill="#8aa1b7" font-size="14">ideal</text>
<text x="814" y="122" fill="#67f5a5" font-size="14">speedup</text>
<text x="814" y="150" fill="#ff6f91" font-size="14">efficiency</text>
<text x="814" y="188" class="label">assembly + LU</text>
<text x="814" y="210" class="label">distributed mesh</text>
</svg>
