<svg xmlns="http://www.w3.org/2000/svg" width="900" height="410" viewBox="0 0 900 410">
<rect width="100%" height="100%" fill="#07111f"/>
<style>
  text { font-family: -apple-system, BlinkMacSystemFont, "Segoe UI", sans-serif; }
  .title { fill: #e8f1fa; font-size: 24px; font-weight: 650; }
  .axis { stroke: #91a8be; stroke-width: 1.2; }
  .grid { stroke: #263c52; stroke-width: 0.8; opacity: 0.75; }
  .tick { fill: #c8d7e5; font-size: 12px; }
  .label { fill: #9fb3c7; font-size: 14px; }
</style>
<rect x="78" y="62" width="720" height="260" rx="8" fill="#0b1b2e" stroke="#28465f"/>
<text x="78" y="36" class="title">Coefficient placement changes the plume speed</text>
<line x1="78.0" y1="62" x2="78.0" y2="322" class="grid"/>
<line x1="78" y1="62.0" x2="798" y2="62.0" class="grid"/>
<line x1="222.0" y1="62" x2="222.0" y2="322" class="grid"/>
<line x1="78" y1="114.0" x2="798" y2="114.0" class="grid"/>
<line x1="366.0" y1="62" x2="366.0" y2="322" class="grid"/>
<line x1="78" y1="166.0" x2="798" y2="166.0" class="grid"/>
<line x1="510.0" y1="62" x2="510.0" y2="322" class="grid"/>
<line x1="78" y1="218.0" x2="798" y2="218.0" class="grid"/>
<line x1="654.0" y1="62" x2="654.0" y2="322" class="grid"/>
<line x1="78" y1="270.0" x2="798" y2="270.0" class="grid"/>
<line x1="798.0" y1="62" x2="798.0" y2="322" class="grid"/>
<line x1="78" y1="322.0" x2="798" y2="322.0" class="grid"/>
<line x1="78" y1="322" x2="798" y2="322" class="axis"/>
<line x1="78" y1="62" x2="78" y2="322" class="axis"/>
<text x="438.0" y="370" text-anchor="middle" class="label">x [m]</text>
<text x="24" y="192.0" text-anchor="middle" transform="rotate(-90 24 192.0)" class="label">S_w</text>
<polygon points="78.00,306.00 81.27,306.00 84.55,306.00 87.82,306.00 91.09,306.00 94.36,306.00 97.64,306.00 100.91,306.00 104.18,306.00 107.45,306.00 110.73,306.00 114.00,306.00 117.27,306.00 120.55,306.00 123.82,306.00 127.09,306.00 130.36,306.00 133.64,306.00 136.91,306.00 140.18,306.00 143.45,306.00 146.73,306.00 150.00,306.00 153.27,306.00 156.55,305.99 159.82,305.99 163.09,305.99 166.36,305.99 169.64,305.99 172.91,305.98 176.18,305.98 179.45,305.97 182.73,305.97 186.00,305.96 189.27,305.95 192.55,305.94 195.82,305.92 199.09,305.90 202.36,305.87 205.64,305.83 208.91,305.79 212.18,305.73 215.45,305.66 218.73,305.57 222.00,305.47 225.27,305.34 228.55,305.18 231.82,304.99 235.09,304.77 238.36,304.50 241.64,304.19 244.91,303.82 248.18,303.40 251.45,302.91 254.73,302.35 258.00,301.71 261.27,300.98 264.55,300.15 267.82,299.22 271.09,298.16 274.36,296.96 277.64,295.61 280.91,294.07 284.18,292.33 287.45,290.33 290.73,288.06 294.00,285.45 297.27,282.45 300.55,279.02 303.82,275.07 307.09,270.57 310.36,265.43 313.64,259.62 316.91,253.09 320.18,245.83 323.45,237.86 326.73,229.22 330.00,220.00 333.27,210.30 336.55,200.29 339.82,190.14 343.09,180.02 346.36,170.13 349.64,160.63 352.91,151.65 356.18,143.31 359.45,135.67 362.73,128.78 366.00,122.63 369.27,117.20 372.55,112.46 375.82,108.36 379.09,104.82 382.36,101.81 385.64,99.24 388.91,97.07 392.18,95.23 395.45,93.69 398.73,92.40 402.00,91.32 405.27,90.42 408.55,89.67 411.82,89.04 415.09,88.52 418.36,88.09 421.64,87.73 424.91,87.43 428.18,87.18 431.45,86.98 434.73,86.81 438.00,86.67 441.27,86.55 444.55,86.46 447.82,86.38 451.09,86.31 454.36,86.26 457.64,86.21 460.91,86.18 464.18,86.15 467.45,86.12 470.73,86.10 474.00,86.08 477.27,86.07 480.55,86.06 483.82,86.05 487.09,86.04 490.36,86.03 493.64,86.03 496.91,86.02 500.18,86.02 503.45,86.01 506.73,86.01 510.00,86.01 513.27,86.01 516.55,86.01 519.82,86.01 523.09,86.00 526.36,86.00 529.64,86.00 532.91,86.00 536.18,86.00 539.45,86.00 542.73,86.00 546.00,86.00 549.27,86.00 552.55,86.00 555.82,86.00 559.09,86.00 562.36,86.00 565.64,86.00 568.91,86.00 572.18,86.00 575.45,86.00 578.73,86.00 582.00,86.00 585.27,86.00 588.55,86.00 591.82,86.00 595.09,86.00 598.36,86.00 601.64,86.00 604.91,86.00 608.18,86.00 611.45,86.00 614.73,86.00 618.00,86.00 621.27,86.00 624.55,86.00 627.82,86.00 631.09,86.00 634.36,86.00 637.64,86.00 640.91,86.00 644.18,86.00 647.45,86.00 650.73,86.00 654.00,86.00 657.27,86.00 660.55,86.00 663.82,86.00 667.09,86.00 670.36,86.00 673.64,86.00 676.91,86.00 680.18,86.00 683.45,86.00 686.73,86.00 690.00,86.00 693.27,86.00 696.55,86.00 699.82,86.00 703.09,86.00 706.36,86.00 709.64,86.00 712.91,86.00 716.18,86.00 719.45,86.00 722.73,86.00 726.00,86.00 729.27,86.00 732.55,86.00 735.82,86.00 739.09,86.00 742.36,86.00 745.64,86.00 748.91,86.00 752.18,86.00 755.45,86.00 758.73,86.00 762.00,86.00 765.27,86.00 768.55,86.00 771.82,86.00 775.09,86.00 778.36,86.00 781.64,86.00 784.91,86.00 788.18,86.00 791.45,86.00 794.73,86.00 798.00,86.00 798.00,86.00 794.73,86.00 791.45,86.00 788.18,86.00 784.91,86.00 781.64,86.00 778.36,86.00 775.09,86.00 771.82,86.00 768.55,86.00 765.27,86.00 762.00,86.00 758.73,86.00 755.45,86.00 752.18,86.00 748.91,86.00 745.64,86.00 742.36,86.00 739.09,86.00 735.82,86.00 732.55,86.00 729.27,86.00 726.00,86.00 722.73,86.00 719.45,86.00 716.18,86.00 712.91,86.00 709.64,86.00 706.36,86.00 703.09,86.00 699.82,86.00 696.55,86.00 693.27,86.00 690.00,86.00 686.73,86.00 683.45,86.00 680.18,86.00 676.91,86.00 673.64,86.00 670.36,86.00 667.09,86.00 663.82,86.00 660.55,86.00 657.27,86.00 654.00,86.00 650.73,86.00 647.45,86.00 644.18,86.00 640.91,86.00 637.64,86.00 634.36,86.00 631.09,86.00 627.82,86.00 624.55,86.00 621.27,86.00 618.00,86.00 614.73,86.00 611.45,86.00 608.18,86.00 604.91,86.00 601.64,86.00 598.36,86.00 595.09,86.00 591.82,86.00 588.55,86.00 585.27,86.00 582.00,86.00 578.73,86.00 575.45,86.00 572.18,86.00 568.91,86.00 565.64,86.00 562.36,86.00 559.09,86.00 555.82,86.00 552.55,86.00 549.27,86.00 546.00,86.00 542.73,86.00 539.45,86.00 536.18,86.00 532.91,86.00 529.64,86.00 526.36,86.00 523.09,86.00 519.82,86.00 516.55,86.00 513.27,86.01 510.00,86.01 506.73,86.01 503.45,86.01 500.18,86.01 496.91,86.01 493.64,86.01 490.36,86.02 487.09,86.02 483.82,86.02 480.55,86.03 477.27,86.03 474.00,86.03 470.73,86.04 467.45,86.05 464.18,86.05 460.91,86.06 457.64,86.07 454.36,86.09 451.09,86.10 447.82,86.12 444.55,86.14 441.27,86.16 438.00,86.18 434.73,86.21 431.45,86.25 428.18,86.29 424.91,86.34 421.64,86.39 418.36,86.46 415.09,86.53 411.82,86.62 408.55,86.72 405.27,86.84 402.00,86.97 398.73,87.13 395.45,87.32 392.18,87.53 388.91,87.78 385.64,88.06 382.36,88.40 379.09,88.79 375.82,89.24 372.55,89.76 369.27,90.36 366.00,91.06 362.73,91.86 359.45,92.79 356.18,93.86 352.91,95.09 349.64,96.51 346.36,98.13 343.09,99.99 339.82,102.11 336.55,104.53 333.27,107.27 330.00,110.36 326.73,113.84 323.45,117.74 320.18,122.08 316.91,126.88 313.64,132.17 310.36,137.94 307.09,144.19 303.82,150.90 300.55,158.04 297.27,165.56 294.00,173.41 290.73,181.50 287.45,189.76 284.18,198.08 280.91,206.39 277.64,214.57 274.36,222.55 271.09,230.24 267.82,237.58 264.55,244.51 261.27,250.99 258.00,257.01 254.73,262.53 251.45,267.58 248.18,272.15 244.91,276.26 241.64,279.95 238.36,283.23 235.09,286.15 231.82,288.72 228.55,290.98 225.27,292.97 222.00,294.71 218.73,296.22 215.45,297.55 212.18,298.69 208.91,299.69 205.64,300.56 202.36,301.31 199.09,301.95 195.82,302.51 192.55,303.00 189.27,303.41 186.00,303.77 182.73,304.08 179.45,304.35 176.18,304.58 172.91,304.78 169.64,304.95 166.36,305.10 163.09,305.22 159.82,305.33 156.55,305.43 153.27,305.51 150.00,305.58 146.73,305.64 143.45,305.69 140.18,305.73 136.91,305.77 133.64,305.80 130.36,305.83 127.09,305.85 123.82,305.87 120.55,305.89 117.27,305.91 114.00,305.92 110.73,305.93 107.45,305.94 104.18,305.95 100.91,305.96 97.64,305.96 94.36,305.97 91.09,305.97 87.82,305.98 84.55,305.98 81.27,305.98 78.00,305.98" fill="#58e6ff" opacity="0.18"/>
<polyline points="78.00,305.98 81.27,305.98 84.55,305.98 87.82,305.98 91.09,305.97 94.36,305.97 97.64,305.96 100.91,305.96 104.18,305.95 107.45,305.94 110.73,305.93 114.00,305.92 117.27,305.91 120.55,305.89 123.82,305.87 127.09,305.85 130.36,305.83 133.64,305.80 136.91,305.77 140.18,305.73 143.45,305.69 146.73,305.64 150.00,305.58 153.27,305.51 156.55,305.43 159.82,305.33 163.09,305.22 166.36,305.10 169.64,304.95 172.91,304.78 176.18,304.58 179.45,304.35 182.73,304.08 186.00,303.77 189.27,303.41 192.55,303.00 195.82,302.51 199.09,301.95 202.36,301.31 205.64,300.56 208.91,299.69 212.18,298.69 215.45,297.55 218.73,296.22 222.00,294.71 225.27,292.97 228.55,290.98 231.82,288.72 235.09,286.15 238.36,283.23 241.64,279.95 244.91,276.26 248.18,272.15 251.45,267.58 254.73,262.53 258.00,257.01 261.27,250.99 264.55,244.51 267.82,237.58 271.09,230.24 274.36,222.55 277.64,214.57 280.91,206.39 284.18,198.08 287.45,189.76 290.73,181.50 294.00,173.41 297.27,165.56 300.55,158.04 303.82,150.90 307.09,144.19 310.36,137.94 313.64,132.17 316.91,126.88 320.18,122.08 323.45,117.74 326.73,113.84 330.00,110.36 333.27,107.27 336.55,104.53 339.82,102.11 343.09,99.99 346.36,98.13 349.64,96.51 352.91,95.09 356.18,93.86 359.45,92.79 362.73,91.86 366.00,91.06 369.27,90.36 372.55,89.76 375.82,89.24 379.09,88.79 382.36,88.40 385.64,88.06 388.91,87.78 392.18,87.53 395.45,87.32 398.73,87.13 402.00,86.97 405.27,86.84 408.55,86.72 411.82,86.62 415.09,86.53 418.36,86.46 421.64,86.39 424.91,86.34 428.18,86.29 431.45,86.25 434.73,86.21 438.00,86.18 441.27,86.16 444.55,86.14 447.82,86.12 451.09,86.10 454.36,86.09 457.64,86.07 460.91,86.06 464.18,86.05 467.45,86.05 470.73,86.04 474.00,86.03 477.27,86.03 480.55,86.03 483.82,86.02 487.09,86.02 490.36,86.02 493.64,86.01 496.91,86.01 500.18,86.01 503.45,86.01 506.73,86.01 510.00,86.01 513.27,86.01 516.55,86.00 519.82,86.00 523.09,86.00 526.36,86.00 529.64,86.00 532.91,86.00 536.18,86.00 539.45,86.00 542.73,86.00 546.00,86.00 549.27,86.00 552.55,86.00 555.82,86.00 559.09,86.00 562.36,86.00 565.64,86.00 568.91,86.00 572.18,86.00 575.45,86.00 578.73,86.00 582.00,86.00 585.27,86.00 588.55,86.00 591.82,86.00 595.09,86.00 598.36,86.00 601.64,86.00 604.91,86.00 608.18,86.00 611.45,86.00 614.73,86.00 618.00,86.00 621.27,86.00 624.55,86.00 627.82,86.00 631.09,86.00 634.36,86.00 637.64,86.00 640.91,86.00 644.18,86.00 647.45,86.00 650.73,86.00 654.00,86.00 657.27,86.00 660.55,86.00 663.82,86.00 667.09,86.00 670.36,86.00 673.64,86.00 676.91,86.00 680.18,86.00 683.45,86.00 686.73,86.00 690.00,86.00 693.27,86.00 696.55,86.00 699.82,86.00 703.09,86.00 706.36,86.00 709.64,86.00 712.91,86.00 716.18,86.00 719.45,86.00 722.73,86.00 726.00,86.00 729.27,86.00 732.55,86.00 735.82,86.00 739.09,86.00 742.36,86.00 745.64,86.00 748.91,86.00 752.18,86.00 755.45,86.00 758.73,86.00 762.00,86.00 765.27,86.00 768.55,86.00 771.82,86.00 775.09,86.00 778.36,86.00 781.64,86.00 784.91,86.00 788.18,86.00 791.45,86.00 794.73,86.00 798.00,86.00" fill="none" stroke="#ffb86b" stroke-width="3" stroke-linecap="round" stroke-linejoin="round" opacity="1.0"/>
<polyline points="78.00,306.00 81.27,306.00 84.55,306.00 87.82,306.00 91.09,306.00 94.36,306.00 97.64,306.00 100.91,306.00 104.18,306.00 107.45,306.00 110.73,306.00 114.00,306.00 117.27,306.00 120.55,306.00 123.82,306.00 127.09,306.00 130.36,306.00 133.64,306.00 136.91,306.00 140.18,306.00 143.45,306.00 146.73,306.00 150.00,306.00 153.27,306.00 156.55,305.99 159.82,305.99 163.09,305.99 166.36,305.99 169.64,305.99 172.91,305.98 176.18,305.98 179.45,305.97 182.73,305.97 186.00,305.96 189.27,305.95 192.55,305.94 195.82,305.92 199.09,305.90 202.36,305.87 205.64,305.83 208.91,305.79 212.18,305.73 215.45,305.66 218.73,305.57 222.00,305.47 225.27,305.34 228.55,305.18 231.82,304.99 235.09,304.77 238.36,304.50 241.64,304.19 244.91,303.82 248.18,303.40 251.45,302.91 254.73,302.35 258.00,301.71 261.27,300.98 264.55,300.15 267.82,299.22 271.09,298.16 274.36,296.96 277.64,295.61 280.91,294.07 284.18,292.33 287.45,290.33 290.73,288.06 294.00,285.45 297.27,282.45 300.55,279.02 303.82,275.07 307.09,270.57 310.36,265.43 313.64,259.62 316.91,253.09 320.18,245.83 323.45,237.86 326.73,229.22 330.00,220.00 333.27,210.30 336.55,200.29 339.82,190.14 343.09,180.02 346.36,170.13 349.64,160.63 352.91,151.65 356.18,143.31 359.45,135.67 362.73,128.78 366.00,122.63 369.27,117.20 372.55,112.46 375.82,108.36 379.09,104.82 382.36,101.81 385.64,99.24 388.91,97.07 392.18,95.23 395.45,93.69 398.73,92.40 402.00,91.32 405.27,90.42 408.55,89.67 411.82,89.04 415.09,88.52 418.36,88.09 421.64,87.73 424.91,87.43 428.18,87.18 431.45,86.98 434.73,86.81 438.00,86.67 441.27,86.55 444.55,86.46 447.82,86.38 451.09,86.31 454.36,86.26 457.64,86.21 460.91,86.18 464.18,86.15 467.45,86.12 470.73,86.10 474.00,86.08 477.27,86.07 480.55,86.06 483.82,86.05 487.09,86.04 490.36,86.03 493.64,86.03 496.91,86.02 500.18,86.02 503.45,86.01 506.73,86.01 510.00,86.01 513.27,86.01 516.55,86.01 519.82,86.01 523.09,86.00 526.36,86.00 529.64,86.00 532.91,86.00 536.18,86.00 539.45,86.00 542.73,86.00 546.00,86.00 549.27,86.00 552.55,86.00 555.82,86.00 559.09,86.00 562.36,86.00 565.64,86.00 568.91,86.00 572.18,86.00 575.45,86.00 578.73,86.00 582.00,86.00 585.27,86.00 588.55,86.00 591.82,86.00 595.09,86.00 598.36,86.00 601.64,86.00 604.91,86.00 608.18,86.00 611.45,86.00 614.73,86.00 618.00,86.00 621.27,86.00 624.55,86.00 627.82,86.00 631.09,86.00 634.36,86.00 637.64,86.00 640.91,86.00 644.18,86.00 647.45,86.00 650.73,86.00 654.00,86.00 657.27,86.00 660.55,86.00 663.82,86.00 667.09,86.00 670.36,86.00 673.64,86.00 676.91,86.00 680.18,86.00 683.45,86.00 686.73,86.00 690.00,86.00 693.27,86.00 696.55,86.00 699.82,86.00 703.09,86.00 706.36,86.00 709.64,86.00 712.91,86.00 716.18,86.00 719.45,86.00 722.73,86.00 726.00,86.00 729.27,86.00 732.55,86.00 735.82,86.00 739.09,86.00 742.36,86.00 745.64,86.00 748.91,86.00 752.18,86.00 755.45,86.00 758.73,86.00 762.00,86.00 765.27,86.00 768.55,86.00 771.82,86.00 775.09,86.00 778.36,86.00 781.64,86.00 784.91,86.00 788.18,86.00 791.45,86.00 794.73,86.00 798.00,86.00" fill="none" stroke="#58e6ff" stroke-width="3" stroke-linecap="round" stroke-linejoin="round" opacity="1.0"/>
<text x="814" y="104" fill="#ffb86b" font-size="14">qp/nodal</text>
<text x="814" y="132" fill="#58e6ff" font-size="14">cell-centered</text>
<text x="814" y="174" class="label">same mesh</text>
<text x="814" y="196" class="label">same time step</text>
<text x="814" y="218" class="label">different algebra</text>
</svg>
